<mxfile host="app.diagrams.net" modified="2023-09-30T21:26:52.482Z" agent="Mozilla/5.0 (Windows NT 10.0; Win64; x64) AppleWebKit/537.36 (KHTML, like Gecko) Chrome/117.0.0.0 Safari/537.36" etag="Phu2XneY-DUgWL0ZeKdo" version="22.0.0" type="device">
  <diagram name="PÃ¡gina-1" id="jO20_ygx6mQQeE84EpbZ">
    <mxGraphModel dx="2049" dy="1097" grid="1" gridSize="10" guides="1" tooltips="1" connect="1" arrows="1" fold="1" page="1" pageScale="1" pageWidth="827" pageHeight="1169" math="0" shadow="0">
      <root>
        <mxCell id="0" />
        <mxCell id="1" parent="0" />
        <mxCell id="Wz5leyhRFPx-VhufyqAk-18" style="edgeStyle=orthogonalEdgeStyle;rounded=0;orthogonalLoop=1;jettySize=auto;html=1;entryX=0.5;entryY=0;entryDx=0;entryDy=0;" edge="1" parent="1" source="Wz5leyhRFPx-VhufyqAk-1" target="Wz5leyhRFPx-VhufyqAk-2">
          <mxGeometry relative="1" as="geometry" />
        </mxCell>
        <mxCell id="Wz5leyhRFPx-VhufyqAk-1" value="iniciarCarrera()" style="ellipse;whiteSpace=wrap;html=1;" vertex="1" parent="1">
          <mxGeometry x="356" y="20" width="115" height="60" as="geometry" />
        </mxCell>
        <mxCell id="Wz5leyhRFPx-VhufyqAk-17" style="edgeStyle=orthogonalEdgeStyle;rounded=0;orthogonalLoop=1;jettySize=auto;html=1;entryX=0.5;entryY=0;entryDx=0;entryDy=0;" edge="1" parent="1" source="Wz5leyhRFPx-VhufyqAk-2" target="Wz5leyhRFPx-VhufyqAk-4">
          <mxGeometry relative="1" as="geometry" />
        </mxCell>
        <mxCell id="Wz5leyhRFPx-VhufyqAk-2" value="char n1[20] = &quot;Rayo McQueen&quot;&lt;br&gt;char n2[20] = &quot;Francesco Bernoulli&quot;&lt;br&gt;char n3[20] = &quot;Mate&quot;" style="rounded=0;whiteSpace=wrap;html=1;" vertex="1" parent="1">
          <mxGeometry x="306" y="110" width="215" height="60" as="geometry" />
        </mxCell>
        <mxCell id="Wz5leyhRFPx-VhufyqAk-16" style="edgeStyle=orthogonalEdgeStyle;rounded=0;orthogonalLoop=1;jettySize=auto;html=1;entryX=0.5;entryY=0;entryDx=0;entryDy=0;" edge="1" parent="1" source="Wz5leyhRFPx-VhufyqAk-4" target="Wz5leyhRFPx-VhufyqAk-5">
          <mxGeometry relative="1" as="geometry" />
        </mxCell>
        <mxCell id="Wz5leyhRFPx-VhufyqAk-4" value="&lt;div&gt;register int v1 = generarVelocidadAleatoria()&lt;/div&gt;&lt;div&gt;register int v2 = generarVelocidadAleatoria()&lt;/div&gt;&lt;div&gt;register int v3 = generarVelocidadAleatoria()&lt;/div&gt;" style="rounded=0;whiteSpace=wrap;html=1;" vertex="1" parent="1">
          <mxGeometry x="276.5" y="200" width="274" height="60" as="geometry" />
        </mxCell>
        <mxCell id="Wz5leyhRFPx-VhufyqAk-14" value="" style="edgeStyle=orthogonalEdgeStyle;rounded=0;orthogonalLoop=1;jettySize=auto;html=1;" edge="1" parent="1" source="Wz5leyhRFPx-VhufyqAk-5" target="Wz5leyhRFPx-VhufyqAk-7">
          <mxGeometry relative="1" as="geometry" />
        </mxCell>
        <mxCell id="Wz5leyhRFPx-VhufyqAk-5" value="&lt;div&gt;int distancia = 1000&lt;/div&gt;" style="rounded=0;whiteSpace=wrap;html=1;" vertex="1" parent="1">
          <mxGeometry x="347" y="290" width="133" height="50" as="geometry" />
        </mxCell>
        <mxCell id="Wz5leyhRFPx-VhufyqAk-13" style="edgeStyle=orthogonalEdgeStyle;rounded=0;orthogonalLoop=1;jettySize=auto;html=1;entryX=0.5;entryY=0;entryDx=0;entryDy=0;" edge="1" parent="1" source="Wz5leyhRFPx-VhufyqAk-7" target="Wz5leyhRFPx-VhufyqAk-8">
          <mxGeometry relative="1" as="geometry" />
        </mxCell>
        <mxCell id="Wz5leyhRFPx-VhufyqAk-7" value="&lt;div&gt;&lt;span style=&quot;background-color: initial;&quot;&gt;float t1 = (float)distancia / v1&lt;/span&gt;&lt;br&gt;&lt;/div&gt;&lt;div&gt;float t2 = (float)distancia / v2&lt;/div&gt;&lt;div&gt;float t3 = (float)distancia / v3&lt;/div&gt;" style="rounded=0;whiteSpace=wrap;html=1;" vertex="1" parent="1">
          <mxGeometry x="318" y="370" width="192" height="70" as="geometry" />
        </mxCell>
        <mxCell id="Wz5leyhRFPx-VhufyqAk-12" style="edgeStyle=orthogonalEdgeStyle;rounded=0;orthogonalLoop=1;jettySize=auto;html=1;entryX=0.5;entryY=0;entryDx=0;entryDy=0;exitX=0.499;exitY=0.858;exitDx=0;exitDy=0;exitPerimeter=0;" edge="1" parent="1" source="Wz5leyhRFPx-VhufyqAk-8" target="Wz5leyhRFPx-VhufyqAk-9">
          <mxGeometry relative="1" as="geometry" />
        </mxCell>
        <mxCell id="Wz5leyhRFPx-VhufyqAk-8" value="&lt;div&gt;&quot;%s - Velocidad: %d km/h - Tiempo: %.2fs&quot;, n1, v1, t1,&lt;/div&gt;&lt;div&gt;&lt;span style=&quot;background-color: initial;&quot;&gt;&quot;%s - Velocidad: %d km/h - Tiempo: %.2fs&quot;, n2, v2, t2,&lt;/span&gt;&lt;/div&gt;&lt;div&gt;&quot;%s - Velocidad: %d km/h - Tiempo: %.2fs&quot;, n3, v3, t3&lt;/div&gt;" style="shape=document;whiteSpace=wrap;html=1;boundedLbl=1;" vertex="1" parent="1">
          <mxGeometry x="254.5" y="470" width="319" height="80" as="geometry" />
        </mxCell>
        <mxCell id="Wz5leyhRFPx-VhufyqAk-11" style="edgeStyle=orthogonalEdgeStyle;rounded=0;orthogonalLoop=1;jettySize=auto;html=1;entryX=0.5;entryY=0;entryDx=0;entryDy=0;" edge="1" parent="1" source="Wz5leyhRFPx-VhufyqAk-9" target="Wz5leyhRFPx-VhufyqAk-10">
          <mxGeometry relative="1" as="geometry" />
        </mxCell>
        <mxCell id="Wz5leyhRFPx-VhufyqAk-25" style="edgeStyle=orthogonalEdgeStyle;rounded=0;orthogonalLoop=1;jettySize=auto;html=1;entryX=0.5;entryY=0;entryDx=0;entryDy=0;" edge="1" parent="1" source="Wz5leyhRFPx-VhufyqAk-9" target="Wz5leyhRFPx-VhufyqAk-23">
          <mxGeometry relative="1" as="geometry" />
        </mxCell>
        <mxCell id="Wz5leyhRFPx-VhufyqAk-9" value="t1 &amp;lt; t2" style="rhombus;whiteSpace=wrap;html=1;" vertex="1" parent="1">
          <mxGeometry x="374" y="585" width="80" height="80" as="geometry" />
        </mxCell>
        <mxCell id="Wz5leyhRFPx-VhufyqAk-21" style="edgeStyle=orthogonalEdgeStyle;rounded=0;orthogonalLoop=1;jettySize=auto;html=1;entryX=0.5;entryY=0;entryDx=0;entryDy=0;" edge="1" parent="1" source="Wz5leyhRFPx-VhufyqAk-10" target="Wz5leyhRFPx-VhufyqAk-19">
          <mxGeometry relative="1" as="geometry">
            <Array as="points">
              <mxPoint x="660" y="705" />
            </Array>
          </mxGeometry>
        </mxCell>
        <mxCell id="Wz5leyhRFPx-VhufyqAk-22" style="edgeStyle=orthogonalEdgeStyle;rounded=0;orthogonalLoop=1;jettySize=auto;html=1;entryX=0.5;entryY=0;entryDx=0;entryDy=0;" edge="1" parent="1" source="Wz5leyhRFPx-VhufyqAk-10" target="Wz5leyhRFPx-VhufyqAk-20">
          <mxGeometry relative="1" as="geometry">
            <Array as="points">
              <mxPoint x="500" y="705" />
            </Array>
          </mxGeometry>
        </mxCell>
        <mxCell id="Wz5leyhRFPx-VhufyqAk-10" value="t1 &amp;lt; t3" style="rhombus;whiteSpace=wrap;html=1;" vertex="1" parent="1">
          <mxGeometry x="540" y="665" width="80" height="80" as="geometry" />
        </mxCell>
        <mxCell id="Wz5leyhRFPx-VhufyqAk-40" style="edgeStyle=orthogonalEdgeStyle;rounded=0;orthogonalLoop=1;jettySize=auto;html=1;entryX=1;entryY=0.5;entryDx=0;entryDy=0;exitX=0.583;exitY=0.783;exitDx=0;exitDy=0;exitPerimeter=0;" edge="1" parent="1" source="Wz5leyhRFPx-VhufyqAk-19" target="Wz5leyhRFPx-VhufyqAk-38">
          <mxGeometry relative="1" as="geometry">
            <Array as="points">
              <mxPoint x="670" y="869" />
            </Array>
          </mxGeometry>
        </mxCell>
        <mxCell id="Wz5leyhRFPx-VhufyqAk-19" value="&quot;%s es el ganador de la carrera!\n&quot;, n1" style="shape=document;whiteSpace=wrap;html=1;boundedLbl=1;" vertex="1" parent="1">
          <mxGeometry x="600" y="760" width="120" height="80" as="geometry" />
        </mxCell>
        <mxCell id="Wz5leyhRFPx-VhufyqAk-39" style="edgeStyle=orthogonalEdgeStyle;rounded=0;orthogonalLoop=1;jettySize=auto;html=1;entryX=0;entryY=0.5;entryDx=0;entryDy=0;exitX=0.498;exitY=0.845;exitDx=0;exitDy=0;exitPerimeter=0;" edge="1" parent="1" source="Wz5leyhRFPx-VhufyqAk-20" target="Wz5leyhRFPx-VhufyqAk-38">
          <mxGeometry relative="1" as="geometry">
            <Array as="points">
              <mxPoint x="500" y="869" />
            </Array>
          </mxGeometry>
        </mxCell>
        <mxCell id="Wz5leyhRFPx-VhufyqAk-20" value="&quot;%s es el ganador de la carrera!\n&quot;, n3" style="shape=document;whiteSpace=wrap;html=1;boundedLbl=1;" vertex="1" parent="1">
          <mxGeometry x="440" y="760" width="120" height="80" as="geometry" />
        </mxCell>
        <mxCell id="Wz5leyhRFPx-VhufyqAk-26" style="edgeStyle=orthogonalEdgeStyle;rounded=0;orthogonalLoop=1;jettySize=auto;html=1;entryX=0.5;entryY=0;entryDx=0;entryDy=0;" edge="1" parent="1" source="Wz5leyhRFPx-VhufyqAk-23" target="Wz5leyhRFPx-VhufyqAk-24">
          <mxGeometry relative="1" as="geometry">
            <Array as="points">
              <mxPoint x="350" y="705" />
            </Array>
          </mxGeometry>
        </mxCell>
        <mxCell id="Wz5leyhRFPx-VhufyqAk-23" value="t2 &amp;lt; t3" style="rhombus;whiteSpace=wrap;html=1;" vertex="1" parent="1">
          <mxGeometry x="226" y="665" width="80" height="80" as="geometry" />
        </mxCell>
        <mxCell id="Wz5leyhRFPx-VhufyqAk-34" style="edgeStyle=orthogonalEdgeStyle;rounded=0;orthogonalLoop=1;jettySize=auto;html=1;entryX=1;entryY=0.5;entryDx=0;entryDy=0;exitX=0.5;exitY=0.847;exitDx=0;exitDy=0;exitPerimeter=0;" edge="1" parent="1" source="Wz5leyhRFPx-VhufyqAk-24" target="Wz5leyhRFPx-VhufyqAk-32">
          <mxGeometry relative="1" as="geometry">
            <Array as="points">
              <mxPoint x="350" y="870" />
              <mxPoint x="265" y="870" />
            </Array>
          </mxGeometry>
        </mxCell>
        <mxCell id="Wz5leyhRFPx-VhufyqAk-24" value="&quot;%s es el ganador de la carrera!\n&quot;, n2" style="shape=document;whiteSpace=wrap;html=1;boundedLbl=1;" vertex="1" parent="1">
          <mxGeometry x="290" y="760" width="120" height="80" as="geometry" />
        </mxCell>
        <mxCell id="Wz5leyhRFPx-VhufyqAk-36" style="edgeStyle=orthogonalEdgeStyle;rounded=0;orthogonalLoop=1;jettySize=auto;html=1;entryX=0;entryY=0.5;entryDx=0;entryDy=0;exitX=0.498;exitY=0.858;exitDx=0;exitDy=0;exitPerimeter=0;" edge="1" parent="1" source="Wz5leyhRFPx-VhufyqAk-27" target="Wz5leyhRFPx-VhufyqAk-32">
          <mxGeometry relative="1" as="geometry">
            <Array as="points">
              <mxPoint x="180" y="870" />
              <mxPoint x="265" y="870" />
            </Array>
          </mxGeometry>
        </mxCell>
        <mxCell id="Wz5leyhRFPx-VhufyqAk-27" value="&quot;%s es el ganador de la carrera!\n&quot;, n3" style="shape=document;whiteSpace=wrap;html=1;boundedLbl=1;" vertex="1" parent="1">
          <mxGeometry x="120" y="760" width="120" height="80" as="geometry" />
        </mxCell>
        <mxCell id="Wz5leyhRFPx-VhufyqAk-28" style="edgeStyle=orthogonalEdgeStyle;rounded=0;orthogonalLoop=1;jettySize=auto;html=1;entryX=0.5;entryY=0;entryDx=0;entryDy=0;" edge="1" parent="1" source="Wz5leyhRFPx-VhufyqAk-23" target="Wz5leyhRFPx-VhufyqAk-27">
          <mxGeometry relative="1" as="geometry">
            <Array as="points">
              <mxPoint x="180" y="705" />
            </Array>
          </mxGeometry>
        </mxCell>
        <mxCell id="Wz5leyhRFPx-VhufyqAk-29" value="return" style="ellipse;whiteSpace=wrap;html=1;" vertex="1" parent="1">
          <mxGeometry x="354" y="950" width="120" height="80" as="geometry" />
        </mxCell>
        <mxCell id="Wz5leyhRFPx-VhufyqAk-37" style="edgeStyle=orthogonalEdgeStyle;rounded=0;orthogonalLoop=1;jettySize=auto;html=1;" edge="1" parent="1">
          <mxGeometry relative="1" as="geometry">
            <mxPoint x="414" y="950" as="targetPoint" />
            <mxPoint x="265" y="874" as="sourcePoint" />
            <Array as="points">
              <mxPoint x="265" y="900" />
              <mxPoint x="414" y="900" />
            </Array>
          </mxGeometry>
        </mxCell>
        <mxCell id="Wz5leyhRFPx-VhufyqAk-32" value="" style="ellipse;whiteSpace=wrap;html=1;aspect=fixed;" vertex="1" parent="1">
          <mxGeometry x="265" y="874" as="geometry" />
        </mxCell>
        <mxCell id="Wz5leyhRFPx-VhufyqAk-41" style="edgeStyle=orthogonalEdgeStyle;rounded=0;orthogonalLoop=1;jettySize=auto;html=1;entryX=0.5;entryY=0;entryDx=0;entryDy=0;" edge="1" parent="1" source="Wz5leyhRFPx-VhufyqAk-38" target="Wz5leyhRFPx-VhufyqAk-29">
          <mxGeometry relative="1" as="geometry">
            <Array as="points">
              <mxPoint x="580" y="900" />
              <mxPoint x="414" y="900" />
            </Array>
          </mxGeometry>
        </mxCell>
        <mxCell id="Wz5leyhRFPx-VhufyqAk-38" value="" style="ellipse;whiteSpace=wrap;html=1;aspect=fixed;" vertex="1" parent="1">
          <mxGeometry x="580" y="871" as="geometry" />
        </mxCell>
      </root>
    </mxGraphModel>
  </diagram>
</mxfile>
